# xmcd CD database file
#
# Track frame offsets:
#	150
#	5285
#	45306
#	80597
#	178096
#	194856
#	229493
#	281191
#	298678
#	309361
#
# Disc length: 4422 seconds
#
# Revision: 0
# Processed by: cddbd v1.5.2PL0 Copyright (c) Steve Scherf et al.
# Submitted via: CDex 1.51
#
DISCID=9011440a
DTITLE=Abraham-Hicks - 11-03-07 - Boca Raton, FL
DYEAR=2007
DGENRE=New Age
TTITLE0=Abraham-Hicks Publications
TTITLE1=Forget that you are vibration?
TTITLE2=What is it that you do want?
TTITLE3=Thrive, and tell others how.
TTITLE4=Sympathy, charity and gratitude?
TTITLE5=Remembering names and faces?
TTITLE6=Apologize for his eyesight?
TTITLE7=Any unavailable Intelligence?
TTITLE8=Teachers "die horrible deaths"?
TTITLE9=Boca Raton, FL Workshop close
EXTD=YEAR: 2007
EXTT0=
EXTT1=
EXTT2=
EXTT3=
EXTT4=
EXTT5=
EXTT6=
EXTT7=
EXTT8=
EXTT9=
PLAYORDER=
